<svg width="20" height="20" viewBox="0 0 20 20" fill="none" xmlns="http://www.w3.org/2000/svg">
<path fill-rule="evenodd" clip-rule="evenodd" d="M1.6665 9.99996C1.6665 5.39996 5.3915 1.66663 9.9915 1.66663C14.5998 1.66663 18.3332 5.39996 18.3332 9.99996C18.3332 14.6 14.5998 18.3333 9.9915 18.3333C5.3915 18.3333 1.6665 14.6 1.6665 9.99996ZM13.3082 6.66663H15.7665C14.9665 5.29163 13.6915 4.22496 12.1582 3.69996C12.6582 4.62496 13.0415 5.62496 13.3082 6.66663ZM9.99984 3.36663C10.6915 4.36663 11.2332 5.47496 11.5915 6.66663H8.40817C8.7665 5.47496 9.30817 4.36663 9.99984 3.36663ZM3.33317 9.99996C3.33317 10.575 3.4165 11.1333 3.54984 11.6666H6.3665C6.29984 11.1166 6.24984 10.5666 6.24984 9.99996C6.24984 9.43329 6.29984 8.88329 6.3665 8.33329H3.54984C3.4165 8.86663 3.33317 9.42496 3.33317 9.99996ZM4.23317 13.3333H6.6915C6.95817 14.375 7.3415 15.375 7.8415 16.3C6.30817 15.775 5.03317 14.7166 4.23317 13.3333ZM4.23317 6.66663H6.6915C6.95817 5.62496 7.3415 4.62496 7.8415 3.69996C6.30817 4.22496 5.03317 5.28329 4.23317 6.66663ZM9.99984 16.6333C9.30817 15.6333 8.7665 14.525 8.40817 13.3333H11.5915C11.2332 14.525 10.6915 15.6333 9.99984 16.6333ZM7.9165 9.99996C7.9165 10.5666 7.97484 11.1166 8.04984 11.6666H11.9498C12.0248 11.1166 12.0832 10.5666 12.0832 9.99996C12.0832 9.43329 12.0248 8.87496 11.9498 8.33329H8.04984C7.97484 8.87496 7.9165 9.43329 7.9165 9.99996ZM12.1582 16.3C12.6582 15.375 13.0415 14.375 13.3082 13.3333H15.7665C14.9665 14.7083 13.6915 15.775 12.1582 16.3ZM13.7498 9.99996C13.7498 10.5666 13.6998 11.1166 13.6332 11.6666H16.4498C16.5832 11.1333 16.6665 10.575 16.6665 9.99996C16.6665 9.42496 16.5832 8.86663 16.4498 8.33329H13.6332C13.6998 8.88329 13.7498 9.43329 13.7498 9.99996Z" fill="#293050"/>
</svg>
